<?xml version="1.0" encoding="UTF-8" standalone="no"?>
<!DOCTYPE svg PUBLIC "-//W3C//DTD SVG 1.1//EN"
 "http://www.w3.org/Graphics/SVG/1.1/DTD/svg11.dtd">
<!-- Generated by graphviz version 2.38.0 (20140413.2041)
 -->
<!-- Title: G Pages: 1 -->
<svg width="416pt" height="526pt"
 viewBox="0.00 0.00 416.00 526.00" xmlns="http://www.w3.org/2000/svg" xmlns:xlink="http://www.w3.org/1999/xlink">
<g id="graph0" class="graph" transform="scale(1 1) rotate(0) translate(4 522)">
<title>G</title>
<polygon fill="white" stroke="none" points="-4,4 -4,-522 412,-522 412,4 -4,4"/>
<g id="clust1" class="cluster"><title>cluster_Global</title>
<path fill="none" stroke="gray" d="M20,-8C20,-8 388,-8 388,-8 394,-8 400,-14 400,-20 400,-20 400,-498 400,-498 400,-504 394,-510 388,-510 388,-510 20,-510 20,-510 14,-510 8,-504 8,-498 8,-498 8,-20 8,-20 8,-14 14,-8 20,-8"/>
<text text-anchor="middle" x="204" y="-497.2" font-family="Times,serif" font-size="11.00" fill="gray">Global</text>
</g>
<g id="clust2" class="cluster"><title>cluster_\agilman</title>
<path fill="none" stroke="gray" d="M28,-16C28,-16 380,-16 380,-16 386,-16 392,-22 392,-28 392,-28 392,-470 392,-470 392,-476 386,-482 380,-482 380,-482 28,-482 28,-482 22,-482 16,-476 16,-470 16,-470 16,-28 16,-28 16,-22 22,-16 28,-16"/>
<text text-anchor="middle" x="204" y="-469.2" font-family="Times,serif" font-size="11.00" fill="gray">agilman</text>
</g>
<g id="clust3" class="cluster"><title>cluster_\agilman\a2</title>
<path fill="none" stroke="gray" d="M36,-24C36,-24 372,-24 372,-24 378,-24 384,-30 384,-36 384,-36 384,-442 384,-442 384,-448 378,-454 372,-454 372,-454 36,-454 36,-454 30,-454 24,-448 24,-442 24,-442 24,-36 24,-36 24,-30 30,-24 36,-24"/>
<text text-anchor="middle" x="204" y="-441.2" font-family="Times,serif" font-size="11.00" fill="gray">a2</text>
</g>
<g id="clust4" class="cluster"><title>cluster_\agilman\a2\controller</title>
<path fill="none" stroke="gray" d="M44,-300C44,-300 340.5,-300 340.5,-300 346.5,-300 352.5,-306 352.5,-312 352.5,-312 352.5,-414 352.5,-414 352.5,-420 346.5,-426 340.5,-426 340.5,-426 44,-426 44,-426 38,-426 32,-420 32,-414 32,-414 32,-312 32,-312 32,-306 38,-300 44,-300"/>
<text text-anchor="middle" x="192.25" y="-413.2" font-family="Times,serif" font-size="11.00" fill="gray">controller</text>
</g>
<g id="clust5" class="cluster"><title>cluster_\agilman\a2\model</title>
<path fill="none" stroke="gray" d="M59,-112C59,-112 364,-112 364,-112 370,-112 376,-118 376,-124 376,-124 376,-280 376,-280 376,-286 370,-292 364,-292 364,-292 59,-292 59,-292 53,-292 47,-286 47,-280 47,-280 47,-124 47,-124 47,-118 53,-112 59,-112"/>
<text text-anchor="middle" x="211.5" y="-279.2" font-family="Times,serif" font-size="11.00" fill="gray">model</text>
</g>
<g id="clust6" class="cluster"><title>cluster_\agilman\a2\view</title>
<path fill="none" stroke="gray" d="M259,-32C259,-32 305,-32 305,-32 311,-32 317,-38 317,-44 317,-44 317,-92 317,-92 317,-98 311,-104 305,-104 305,-104 259,-104 259,-104 253,-104 247,-98 247,-92 247,-92 247,-44 247,-44 247,-38 253,-32 259,-32"/>
<text text-anchor="middle" x="282" y="-91.2" font-family="Times,serif" font-size="11.00" fill="gray">view</text>
</g>
<!-- \\agilman\\a2\\controller\\Controller -->
<g id="node1" class="node"><title>\\agilman\\a2\\controller\\Controller</title>
<polygon fill="none" stroke="black" points="124,-371 40,-371 40,-335 124,-335 124,-371"/>
<text text-anchor="middle" x="82" y="-350.2" font-family="Courier,monospace" font-size="11.00">Controller</text>
</g>
<!-- \\agilman\\a2\\controller\\HomeController -->
<g id="node2" class="node"><title>\\agilman\\a2\\controller\\HomeController</title>
<polygon fill="none" stroke="black" points="337.5,-398 226.5,-398 226.5,-362 337.5,-362 337.5,-398"/>
<text text-anchor="middle" x="282" y="-377.2" font-family="Courier,monospace" font-size="11.00">HomeController</text>
</g>
<!-- \\agilman\\a2\\controller\\HomeController&#45;&gt;\\agilman\\a2\\controller\\Controller -->
<g id="edge1" class="edge"><title>\\agilman\\a2\\controller\\HomeController&#45;&gt;\\agilman\\a2\\controller\\Controller</title>
<path fill="none" stroke="black" d="M226.371,-372.551C197.623,-368.63 162.579,-363.852 134.335,-360"/>
<polygon fill="none" stroke="black" points="134.642,-356.51 124.261,-358.626 133.696,-363.446 134.642,-356.51"/>
</g>
<!-- \\agilman\\a2\\controller\\SearchController -->
<g id="node3" class="node"><title>\\agilman\\a2\\controller\\SearchController</title>
<polygon fill="none" stroke="black" points="344.5,-344 219.5,-344 219.5,-308 344.5,-308 344.5,-344"/>
<text text-anchor="middle" x="282" y="-323.2" font-family="Courier,monospace" font-size="11.00">SearchController</text>
</g>
<!-- \\agilman\\a2\\controller\\SearchController&#45;&gt;\\agilman\\a2\\controller\\Controller -->
<g id="edge2" class="edge"><title>\\agilman\\a2\\controller\\SearchController&#45;&gt;\\agilman\\a2\\controller\\Controller</title>
<path fill="none" stroke="black" d="M219.437,-334.395C192.077,-338.126 160.244,-342.467 134.211,-346.017"/>
<polygon fill="none" stroke="black" points="133.61,-342.566 124.174,-347.385 134.555,-349.502 133.61,-342.566"/>
</g>
<!-- \\agilman\\a2\\model\\AccountModel -->
<g id="node4" class="node"><title>\\agilman\\a2\\model\\AccountModel</title>
<polygon fill="none" stroke="black" points="331,-264 233,-264 233,-228 331,-228 331,-264"/>
<text text-anchor="middle" x="282" y="-243.2" font-family="Courier,monospace" font-size="11.00">AccountModel</text>
</g>
<!-- \\agilman\\a2\\model\\Model -->
<g id="node5" class="node"><title>\\agilman\\a2\\model\\Model</title>
<polygon fill="none" stroke="black" points="109,-210 55,-210 55,-174 109,-174 109,-210"/>
<text text-anchor="middle" x="82" y="-189.2" font-family="Courier,monospace" font-size="11.00">Model</text>
</g>
<!-- \\agilman\\a2\\model\\AccountModel&#45;&gt;\\agilman\\a2\\model\\Model -->
<g id="edge3" class="edge"><title>\\agilman\\a2\\model\\AccountModel&#45;&gt;\\agilman\\a2\\model\\Model</title>
<path fill="none" stroke="black" d="M232.817,-232.859C197.698,-223.281 150.874,-210.511 118.982,-201.813"/>
<polygon fill="none" stroke="black" points="119.754,-198.396 109.186,-199.142 117.913,-205.15 119.754,-198.396"/>
</g>
<!-- \\agilman\\a2\\model\\ProductsCollectionModel -->
<g id="node6" class="node"><title>\\agilman\\a2\\model\\ProductsCollectionModel</title>
<polygon fill="none" stroke="black" points="368,-210 196,-210 196,-174 368,-174 368,-210"/>
<text text-anchor="middle" x="282" y="-189.2" font-family="Courier,monospace" font-size="11.00">ProductsCollectionModel</text>
</g>
<!-- \\agilman\\a2\\model\\ProductsCollectionModel&#45;&gt;\\agilman\\a2\\model\\Model -->
<g id="edge4" class="edge"><title>\\agilman\\a2\\model\\ProductsCollectionModel&#45;&gt;\\agilman\\a2\\model\\Model</title>
<path fill="none" stroke="black" d="M195.881,-192C169.161,-192 141.064,-192 119.586,-192"/>
<polygon fill="none" stroke="black" points="119.306,-188.5 109.306,-192 119.306,-195.5 119.306,-188.5"/>
</g>
<!-- \\agilman\\a2\\model\\ProductsModel -->
<g id="node7" class="node"><title>\\agilman\\a2\\model\\ProductsModel</title>
<polygon fill="none" stroke="black" points="334,-156 230,-156 230,-120 334,-120 334,-156"/>
<text text-anchor="middle" x="282" y="-135.2" font-family="Courier,monospace" font-size="11.00">ProductsModel</text>
</g>
<!-- \\agilman\\a2\\model\\ProductsModel&#45;&gt;\\agilman\\a2\\model\\Model -->
<g id="edge5" class="edge"><title>\\agilman\\a2\\model\\ProductsModel&#45;&gt;\\agilman\\a2\\model\\Model</title>
<path fill="none" stroke="black" d="M229.753,-151.977C195.06,-161.438 150.079,-173.706 119.11,-182.152"/>
<polygon fill="none" stroke="black" points="117.907,-178.852 109.18,-184.86 119.748,-185.605 117.907,-178.852"/>
</g>
<!-- \\agilman\\a2\\view\\View -->
<g id="node8" class="node"><title>\\agilman\\a2\\view\\View</title>
<polygon fill="none" stroke="black" points="309,-76 255,-76 255,-40 309,-40 309,-76"/>
<text text-anchor="middle" x="282" y="-55.2" font-family="Courier,monospace" font-size="11.00">View</text>
</g>
</g>
</svg>
